<svg xmlns="http://www.w3.org/2000/svg" enable-background="new 0 0 504.5 504.5" viewBox="0 0 504.5 504.5"><path d="m308.6 161.5-152 68.9 122.9 271 66.2-55.9 85.5-12.6z" fill="#486c88"/><path d="m195.9 164.2 152 68.9-122.8 271.4-66.2-56.3-85.9-12.6s122.9-271.4 122.9-271.4z" fill="#5e89ac"/><path d="m449.2 197.3c0 14.6-20.9 26.8-24 40.6-3.2 14.2 10.6 34.3 4.7 47.3-6.3 13-30.3 14.6-39 25.6s-4.7 35.4-15.8 44.5-33.1-.4-45.7 5.9-19.3 29.9-33.1 33.1c-13.4 3.2-29.5-15-43.7-15s-30.3 18.1-43.7 15c-13.8-3.2-20.5-26.8-33.1-33.1s-35.1 3.2-45.7-5.9c-11-9.1-7.1-33.5-15.8-44.5s-32.7-12.6-39-25.6c-5.9-12.6 7.9-33.1 4.7-47.3-3.9-13.8-24.8-26-24.8-40.6s20.9-26.8 24-40.6c3.2-14.2-10.6-34.3-4.7-47.3 6.3-13 30.3-14.6 39-25.6s4.7-35.4 15.8-44.5 33.1.4 45.7-5.9 19.3-29.9 33.1-33.1c13.4-3.2 29.5 15 43.7 15s30.3-18.1 43.7-15c13.8 3.2 20.5 26.8 33.1 33.1s35.1-3.2 45.7 5.9c11 9.1 7.1 33.5 15.8 44.5s32.7 12.6 39 25.6c5.9 12.6-7.9 33.1-4.7 47.3 3.9 13.8 24.8 26 24.8 40.6z" fill="#efc75e"/><path d="m252.2 118.5c-43.7 0-78.8 35.4-78.8 78.8s35.4 78.8 78.8 78.8c43.7 0 78.8-35.4 78.8-78.8s-35-78.8-78.8-78.8zm0 114.2c-19.7 0-35.4-15.8-35.4-35.4s15.8-35.4 35.4-35.4 35.4 15.8 35.4 35.4-15.7 35.4-35.4 35.4zm0-177.2c-78.4 0-141.8 63.4-141.8 141.8s63.4 141.8 141.8 141.8 141.8-63.4 141.8-141.8-63.4-141.8-141.8-141.8zm0 259.9c-65.4 0-118.2-52.8-118.2-118.2s52.9-118.1 118.2-118.1 118.2 52.8 118.2 118.2-52.8 118.1-118.2 118.1z" fill="#d7b354"/></svg>