<?xml version="1.0" encoding="UTF-8"?>
<svg width="256px" height="256px" viewBox="0 0 256 256" version="1.1" xmlns="http://www.w3.org/2000/svg" >
    
    <g id="Icons" stroke="none" stroke-width="1"  fill-rule="evenodd">
        <g id="Icons/search"  fill-rule="nonzero">
            <path d="M228.35724,212.58876 L169.49028,153.56596 C194.060433,120.646234 189.031722,74.3388717 157.967862,47.460677 C126.904002,20.5824823 80.3546706,22.2616287 51.3081496,51.3081496 C22.2616287,80.3546706 20.5824823,126.904002 47.460677,157.967862 C74.3388717,189.031722 120.646234,194.060433 153.56596,169.49028 L212.58876,228.35724 L228.35724,212.58876 Z M36.36184,107.0084 C36.36184,78.4219109 53.5819277,52.6502323 79.9924014,41.7106603 C106.402875,30.7710882 136.802643,36.8179847 157.016338,57.0316907 C177.230032,77.2453968 183.276911,107.645168 172.337324,134.055636 C161.397737,160.466103 135.626049,177.68616 107.03956,177.68616 L107.0084,177.68616 C68.000559,177.63465 36.3961267,146.01626 36.36184,107.0084 Z M161.20092,163.10184 C161.85532,162.4786 162.50976,161.82416 163.13292,161.16984 C163.75608,160.51552 164.28596,160.07916 164.78452,159.5182 L217.7618,212.49524 L212.49524,217.7618 L159.51808,164.78464 C160.11008,164.28608 160.63996,163.69396 161.20092,163.13304 L161.20092,163.10184 Z" id="search"></path>
        </g>
    </g>
</svg>